<svg xmlns="http://www.w3.org/2000/svg" width="400" height="400" viewBox="0 0 400 400">
  <g opacity="0.1" fill="none" stroke="#8696A0" stroke-width="1.5" stroke-linecap="round" stroke-linejoin="round">
    <!-- Row 1 -->
    <g transform="translate(10, 15) rotate(-12) scale(1.3)"><path d="M0 0h12v16H0z"/><circle cx="6" cy="14" r="1.2"/></g>
    <g transform="translate(55, 8) rotate(18) scale(1.4)"><circle cx="8" cy="8" r="7"/><path d="M8 4v4l3 1.5"/></g>
    <g transform="translate(110, 25) rotate(-8) scale(1.2)"><path d="M8 2L10 7l5.5.8-4 3.9.9 5.5L8 15l-4.4 2.2.9-5.5-4-3.9L6 7z"/></g>
    <g transform="translate(160, 12) rotate(22) scale(1.35)"><path d="M2 8a6 6 0 0112 0c0 5-6 10-6 10s-6-5-6-10z"/><circle cx="8" cy="8" r="2"/></g>
    <g transform="translate(215, 28) rotate(-15) scale(1.25)"><rect x="0" y="4" width="16" height="11" rx="1.5"/><circle cx="8" cy="9.5" r="3"/><path d="M5 4l1.5-2.5h5L13 4"/></g>
    <g transform="translate(275, 10) rotate(10) scale(1.3)"><circle cx="7" cy="7" r="6"/><path d="M5 9s1 1.5 2 1.5 2-1.5 2-1.5"/><circle cx="5" cy="6" r=".8" fill="#8696A0"/><circle cx="9" cy="6" r=".8" fill="#8696A0"/></g>
    <g transform="translate(330, 22) rotate(-25) scale(1.15)"><path d="M0 6c0-3 2.5-5 5.5-5h5c3 0 5.5 2 5.5 5v2.5c0 3-2.5 5-5.5 5H8l-4 3.5v-3.5c-2.2 0-4-1.8-4-4V6z"/></g>
    <g transform="translate(380, 8) rotate(8) scale(1.2)"><path d="M7 3c-1.2-1.2-3-1.2-4.2 0s-1.2 3 0 4.2l4.2 4.2 4.2-4.2c1.2-1.2 1.2-3 0-4.2s-3-1.2-4.2 0z" fill="#8696A0" stroke="none" opacity="0.6"/></g>
    
    <!-- Row 2 -->
    <g transform="translate(20, 70) rotate(15) scale(1.1)"><rect x="2" y="2" width="10" height="16" rx="1.5"/><line x1="7" y1="15" x2="7" y2="15.5"/></g>
    <g transform="translate(70, 82) rotate(-20) scale(1.35)"><path d="M1 10l4 4 7-8"/><path d="M5 10l4 4 7-8"/></g>
    <g transform="translate(130, 65) rotate(8) scale(1.25)"><rect x="0" y="0" width="14" height="10" rx="1.5"/><path d="M14 2l5-2v10l-5-2"/></g>
    <g transform="translate(190, 85) rotate(-14) scale(1.3)"><circle cx="5" cy="12" r="3"/><path d="M8 12V2l9-1.5v9"/></g>
    <g transform="translate(245, 62) rotate(25) scale(1.2)"><path d="M2 1h8l4 4v11c0 .6-.4 1-1 1H2c-.6 0-1-.4-1-1V2c0-.6.4-1 1-1z"/><path d="M10 1v4h4"/></g>
    <g transform="translate(305, 78) rotate(-10) scale(1.35)"><rect x="1" y="6" width="12" height="9" rx="1.5"/><path d="M3 6V4a4 4 0 018 0v2"/><circle cx="7" cy="10.5" r="1.5" fill="#8696A0"/></g>
    <g transform="translate(365, 68) rotate(18) scale(1.25)"><path d="M8 14H4a3 3 0 010-6h4"/><path d="M10 8h4a3 3 0 010 6h-4"/><line x1="6" y1="11" x2="12" y2="11"/></g>
    
    <!-- Row 3 -->
    <g transform="translate(8, 125) rotate(-8) scale(1.4)"><path d="M8 2L10 7l5.5.8-4 3.9.9 5.5L8 15l-4.4 2.2.9-5.5-4-3.9L6 7z"/></g>
    <g transform="translate(65, 140) rotate(22) scale(1.15)"><circle cx="8" cy="8" r="7"/><path d="M8 4v4l3 1.5"/></g>
    <g transform="translate(120, 118) rotate(-18) scale(1.3)"><path d="M7 3c-1.2-1.2-3-1.2-4.2 0s-1.2 3 0 4.2l4.2 4.2 4.2-4.2c1.2-1.2 1.2-3 0-4.2s-3-1.2-4.2 0z"/></g>
    <g transform="translate(175, 132) rotate(12) scale(1.35)"><rect x="0" y="4" width="16" height="11" rx="1.5"/><circle cx="8" cy="9.5" r="3"/><path d="M5 4l1.5-2.5h5L13 4"/></g>
    <g transform="translate(235, 120) rotate(-28) scale(1.2)"><circle cx="7" cy="7" r="6"/><path d="M5 9s1 1.5 2 1.5 2-1.5 2-1.5"/><circle cx="5" cy="6" r=".8" fill="#8696A0"/><circle cx="9" cy="6" r=".8" fill="#8696A0"/></g>
    <g transform="translate(290, 138) rotate(6) scale(1.3)"><path d="M2 8a6 6 0 0112 0c0 5-6 10-6 10s-6-5-6-10z"/><circle cx="8" cy="8" r="2"/></g>
    <g transform="translate(350, 125) rotate(-22) scale(1.2)"><path d="M0 6c0-3 2.5-5 5.5-5h5c3 0 5.5 2 5.5 5v2.5c0 3-2.5 5-5.5 5H8l-4 3.5v-3.5c-2.2 0-4-1.8-4-4V6z"/></g>
    
    <!-- Row 4 -->
    <g transform="translate(30, 185) rotate(20) scale(1.25)"><path d="M1 10l4 4 7-8"/><path d="M5 10l4 4 7-8"/></g>
    <g transform="translate(88, 198) rotate(-12) scale(1.3)"><rect x="0" y="0" width="14" height="10" rx="1.5"/><path d="M14 2l5-2v10l-5-2"/></g>
    <g transform="translate(150, 178) rotate(28) scale(1.35)"><circle cx="5" cy="12" r="3"/><path d="M8 12V2l9-1.5v9"/></g>
    <g transform="translate(210, 195) rotate(-6) scale(1.15)"><path d="M2 1h8l4 4v11c0 .6-.4 1-1 1H2c-.6 0-1-.4-1-1V2c0-.6.4-1 1-1z"/><path d="M10 1v4h4"/><line x1="4" y1="9" x2="9" y2="9"/><line x1="4" y1="12" x2="9" y2="12"/></g>
    <g transform="translate(265, 182) rotate(22) scale(1.4)"><rect x="1" y="6" width="12" height="9" rx="1.5"/><path d="M3 6V4a4 4 0 018 0v2"/></g>
    <g transform="translate(330, 200) rotate(-18) scale(1.2)"><path d="M8 14H4a3 3 0 010-6h4"/><path d="M10 8h4a3 3 0 010 6h-4"/><line x1="6" y1="11" x2="12" y2="11"/></g>
    <g transform="translate(385, 185) rotate(10) scale(1.3)"><path d="M8 2L10 7l5.5.8-4 3.9.9 5.5L8 15l-4.4 2.2.9-5.5-4-3.9L6 7z"/></g>
    
    <!-- Row 5 -->
    <g transform="translate(15, 245) rotate(-22) scale(1.3)"><circle cx="8" cy="8" r="7"/><path d="M8 4v4l3 1.5"/></g>
    <g transform="translate(75, 260) rotate(14) scale(1.35)"><path d="M7 3c-1.2-1.2-3-1.2-4.2 0s-1.2 3 0 4.2l4.2 4.2 4.2-4.2c1.2-1.2 1.2-3 0-4.2s-3-1.2-4.2 0z" fill="#8696A0" stroke="none" opacity="0.5"/></g>
    <g transform="translate(130, 238) rotate(-10) scale(1.25)"><rect x="0" y="4" width="16" height="11" rx="1.5"/><circle cx="8" cy="9.5" r="3"/><path d="M5 4l1.5-2.5h5L13 4"/></g>
    <g transform="translate(195, 255) rotate(20) scale(1.2)"><circle cx="7" cy="7" r="6"/><path d="M5 9s1 1.5 2 1.5 2-1.5 2-1.5"/><circle cx="5" cy="6" r=".8" fill="#8696A0"/><circle cx="9" cy="6" r=".8" fill="#8696A0"/></g>
    <g transform="translate(250, 242) rotate(-30) scale(1.35)"><path d="M2 8a6 6 0 0112 0c0 5-6 10-6 10s-6-5-6-10z"/><circle cx="8" cy="8" r="2"/></g>
    <g transform="translate(310, 258) rotate(8) scale(1.25)"><path d="M0 6c0-3 2.5-5 5.5-5h5c3 0 5.5 2 5.5 5v2.5c0 3-2.5 5-5.5 5H8l-4 3.5v-3.5c-2.2 0-4-1.8-4-4V6z"/></g>
    <g transform="translate(365, 245) rotate(-15) scale(1.2)"><rect x="2" y="2" width="10" height="16" rx="1.5"/><line x1="7" y1="15" x2="7" y2="15.5"/></g>
    
    <!-- Row 6 -->
    <g transform="translate(25, 305) rotate(18) scale(1.2)"><rect x="0" y="0" width="14" height="10" rx="1.5"/><path d="M14 2l5-2v10l-5-2"/></g>
    <g transform="translate(90, 295) rotate(-25) scale(1.35)"><circle cx="5" cy="12" r="3"/><path d="M8 12V2l9-1.5v9"/></g>
    <g transform="translate(145, 315) rotate(10) scale(1.3)"><path d="M2 1h8l4 4v11c0 .6-.4 1-1 1H2c-.6 0-1-.4-1-1V2c0-.6.4-1 1-1z"/><path d="M10 1v4h4"/></g>
    <g transform="translate(205, 300) rotate(-18) scale(1.4)"><rect x="1" y="6" width="12" height="9" rx="1.5"/><path d="M3 6V4a4 4 0 018 0v2"/><circle cx="7" cy="10.5" r="1.5" fill="#8696A0"/></g>
    <g transform="translate(265, 318) rotate(25) scale(1.25)"><path d="M8 14H4a3 3 0 010-6h4"/><path d="M10 8h4a3 3 0 010 6h-4"/><line x1="6" y1="11" x2="12" y2="11"/></g>
    <g transform="translate(325, 302) rotate(-8) scale(1.3)"><path d="M8 2L10 7l5.5.8-4 3.9.9 5.5L8 15l-4.4 2.2.9-5.5-4-3.9L6 7z"/></g>
    <g transform="translate(380, 315) rotate(22) scale(1.15)"><circle cx="8" cy="8" r="7"/><path d="M8 4v4l3 1.5"/></g>
    
    <!-- Row 7 -->
    <g transform="translate(12, 365) rotate(-15) scale(1.35)"><path d="M7 3c-1.2-1.2-3-1.2-4.2 0s-1.2 3 0 4.2l4.2 4.2 4.2-4.2c1.2-1.2 1.2-3 0-4.2s-3-1.2-4.2 0z"/></g>
    <g transform="translate(70, 375) rotate(22) scale(1.25)"><rect x="0" y="4" width="16" height="11" rx="1.5"/><circle cx="8" cy="9.5" r="3"/><path d="M5 4l1.5-2.5h5L13 4"/></g>
    <g transform="translate(135, 358) rotate(-28) scale(1.3)"><circle cx="7" cy="7" r="6"/><path d="M5 9s1 1.5 2 1.5 2-1.5 2-1.5"/><circle cx="5" cy="6" r=".8" fill="#8696A0"/><circle cx="9" cy="6" r=".8" fill="#8696A0"/></g>
    <g transform="translate(195, 372) rotate(8) scale(1.4)"><path d="M2 8a6 6 0 0112 0c0 5-6 10-6 10s-6-5-6-10z"/><circle cx="8" cy="8" r="2"/></g>
    <g transform="translate(255, 362) rotate(-20) scale(1.2)"><path d="M0 6c0-3 2.5-5 5.5-5h5c3 0 5.5 2 5.5 5v2.5c0 3-2.5 5-5.5 5H8l-4 3.5v-3.5c-2.2 0-4-1.8-4-4V6z"/></g>
    <g transform="translate(310, 378) rotate(15) scale(1.35)"><rect x="2" y="2" width="10" height="16" rx="1.5"/><line x1="7" y1="15" x2="7" y2="15.5"/></g>
    <g transform="translate(365, 365) rotate(-12) scale(1.25)"><path d="M1 10l4 4 7-8"/><path d="M5 10l4 4 7-8"/></g>
    
    <!-- Extra scattered elements for density -->
    <g transform="translate(42, 48) rotate(32) scale(1.1)"><path d="M7 3c-1.2-1.2-3-1.2-4.2 0s-1.2 3 0 4.2l4.2 4.2 4.2-4.2c1.2-1.2 1.2-3 0-4.2s-3-1.2-4.2 0z" fill="#8696A0" stroke="none" opacity="0.4"/></g>
    <g transform="translate(165, 55) rotate(-35) scale(1.15)"><path d="M0 6c0-3 2.5-5 5.5-5h5c3 0 5.5 2 5.5 5v2.5c0 3-2.5 5-5.5 5H8l-4 3.5v-3.5c-2.2 0-4-1.8-4-4V6z"/></g>
    <g transform="translate(285, 45) rotate(28) scale(1.2)"><rect x="2" y="2" width="10" height="16" rx="1.5"/><line x1="7" y1="15" x2="7" y2="15.5"/></g>
    <g transform="translate(345, 95) rotate(-22) scale(1.25)"><circle cx="5" cy="12" r="3"/><path d="M8 12V2l9-1.5v9"/></g>
    <g transform="translate(35, 155) rotate(30) scale(1.15)"><rect x="1" y="6" width="12" height="9" rx="1.5"/><path d="M3 6V4a4 4 0 018 0v2"/></g>
    <g transform="translate(100, 168) rotate(-25) scale(1.3)"><path d="M8 14H4a3 3 0 010-6h4"/><path d="M10 8h4a3 3 0 010 6h-4"/><line x1="6" y1="11" x2="12" y2="11"/></g>
    <g transform="translate(225, 155) rotate(18) scale(1.2)"><path d="M8 2L10 7l5.5.8-4 3.9.9 5.5L8 15l-4.4 2.2.9-5.5-4-3.9L6 7z"/></g>
    <g transform="translate(365, 155) rotate(-15) scale(1.25)"><circle cx="8" cy="8" r="7"/><path d="M8 4v4l3 1.5"/></g>
    <g transform="translate(50, 225) rotate(25) scale(1.35)"><path d="M2 8a6 6 0 0112 0c0 5-6 10-6 10s-6-5-6-10z"/><circle cx="8" cy="8" r="2"/></g>
    <g transform="translate(170, 215) rotate(-32) scale(1.2)"><path d="M0 6c0-3 2.5-5 5.5-5h5c3 0 5.5 2 5.5 5v2.5c0 3-2.5 5-5.5 5H8l-4 3.5v-3.5c-2.2 0-4-1.8-4-4V6z"/></g>
    <g transform="translate(295, 230) rotate(15) scale(1.15)"><rect x="0" y="4" width="16" height="11" rx="1.5"/><circle cx="8" cy="9.5" r="3"/><path d="M5 4l1.5-2.5h5L13 4"/></g>
    <g transform="translate(50, 288) rotate(-20) scale(1.3)"><circle cx="7" cy="7" r="6"/><path d="M5 9s1 1.5 2 1.5 2-1.5 2-1.5"/><circle cx="5" cy="6" r=".8" fill="#8696A0"/><circle cx="9" cy="6" r=".8" fill="#8696A0"/></g>
    <g transform="translate(175, 275) rotate(28) scale(1.25)"><path d="M1 10l4 4 7-8"/><path d="M5 10l4 4 7-8"/></g>
    <g transform="translate(350, 355) rotate(-18) scale(1.35)"><rect x="0" y="0" width="14" height="10" rx="1.5"/><path d="M14 2l5-2v10l-5-2"/></g>
    <g transform="translate(115, 385) rotate(22) scale(1.2)"><path d="M8 14H4a3 3 0 010-6h4"/><path d="M10 8h4a3 3 0 010 6h-4"/><line x1="6" y1="11" x2="12" y2="11"/></g>
    <g transform="translate(285, 385) rotate(-30) scale(1.15)"><path d="M2 1h8l4 4v11c0 .6-.4 1-1 1H2c-.6 0-1-.4-1-1V2c0-.6.4-1 1-1z"/><path d="M10 1v4h4"/></g>
  </g>
</svg>
