<svg xmlns="http://www.w3.org/2000/svg" width="200" height="200" viewBox="0 0 200 200">
  <g opacity="0.07" fill="none" stroke="#8696A0" stroke-width="1.5" stroke-linecap="round" stroke-linejoin="round">
    <!-- Speech bubble -->
    <g transform="translate(15, 15)">
      <path d="M2 12c0-5.5 4.5-10 10-10h8c5.5 0 10 4.5 10 10v4c0 5.5-4.5 10-10 10h-4l-6 5v-5h-2c-3.3 0-6-2.7-6-6v-8z"/>
    </g>
    
    <!-- Phone/smartphone -->
    <g transform="translate(70, 20)">
      <rect x="2" y="2" width="14" height="22" rx="2"/>
      <line x1="9" y1="20" x2="9" y2="20.5"/>
    </g>
    
    <!-- Clock -->
    <g transform="translate(130, 15)">
      <circle cx="12" cy="12" r="10"/>
      <path d="M12 6v6l4 2"/>
    </g>
    
    <!-- Heart -->
    <g transform="translate(170, 25)">
      <path d="M12 5c-2-2-5-2-7 0s-2 5 0 7l7 7 7-7c2-2 2-5 0-7s-5-2-7 0z"/>
    </g>
    
    <!-- Camera -->
    <g transform="translate(20, 70)">
      <rect x="2" y="6" width="20" height="14" rx="2"/>
      <circle cx="12" cy="13" r="4"/>
      <path d="M7 6l2-3h6l2 3"/>
    </g>
    
    <!-- Smile emoji -->
    <g transform="translate(75, 75)">
      <circle cx="12" cy="12" r="10"/>
      <path d="M8 14s1.5 2 4 2 4-2 4-2"/>
      <circle cx="9" cy="10" r="1" fill="#8696A0"/>
      <circle cx="15" cy="10" r="1" fill="#8696A0"/>
    </g>
    
    <!-- Microphone -->
    <g transform="translate(130, 70)">
      <rect x="8" y="2" width="8" height="12" rx="4"/>
      <path d="M4 10v2c0 4.4 3.6 8 8 8s8-3.6 8-8v-2"/>
      <line x1="12" y1="20" x2="12" y2="24"/>
    </g>
    
    <!-- Image/photo -->
    <g transform="translate(170, 70)">
      <rect x="2" y="4" width="20" height="16" rx="2"/>
      <circle cx="8" cy="10" r="2"/>
      <path d="M22 16l-5-5-8 8"/>
    </g>
    
    <!-- Document -->
    <g transform="translate(25, 130)">
      <path d="M4 2h10l6 6v14c0 1-1 2-2 2H4c-1 0-2-1-2-2V4c0-1 1-2 2-2z"/>
      <path d="M14 2v6h6"/>
      <line x1="6" y1="12" x2="14" y2="12"/>
      <line x1="6" y1="16" x2="14" y2="16"/>
    </g>
    
    <!-- Location pin -->
    <g transform="translate(80, 130)">
      <path d="M12 2c-4.4 0-8 3.6-8 8 0 6 8 14 8 14s8-8 8-14c0-4.4-3.6-8-8-8z"/>
      <circle cx="12" cy="10" r="3"/>
    </g>
    
    <!-- Star -->
    <g transform="translate(135, 130)">
      <path d="M12 2l3 6 7 1-5 5 1 7-6-3-6 3 1-7-5-5 7-1z"/>
    </g>
    
    <!-- Music note -->
    <g transform="translate(175, 135)">
      <circle cx="6" cy="18" r="4"/>
      <circle cx="18" cy="14" r="4"/>
      <path d="M10 18V4l12-2v12"/>
    </g>
    
    <!-- Video camera -->
    <g transform="translate(15, 175)">
      <rect x="2" y="6" width="14" height="12" rx="2"/>
      <path d="M16 9l6-3v12l-6-3"/>
    </g>
    
    <!-- Link/chain -->
    <g transform="translate(75, 175)">
      <path d="M10 14H6a4 4 0 010-8h4"/>
      <path d="M14 6h4a4 4 0 010 8h-4"/>
      <line x1="8" y1="10" x2="16" y2="10"/>
    </g>
    
    <!-- Double check marks -->
    <g transform="translate(135, 180)">
      <path d="M2 12l5 5 9-10"/>
      <path d="M8 12l5 5 9-10"/>
    </g>
    
    <!-- Lock -->
    <g transform="translate(180, 175)">
      <rect x="4" y="10" width="16" height="12" rx="2"/>
      <path d="M8 10V6a4 4 0 018 0v4"/>
    </g>
  </g>
</svg>
